<svg width="122" height="20" viewBox="0 0 122 20" fill="none" xmlns="http://www.w3.org/2000/svg">
<g clip-path="url(#clip0_323_22)">
<path d="M42.9993 7.37995C42.9993 10.0522 41.2189 12.1607 38.21 12.1607H36.2214C35.6592 12.1607 35.2011 12.62 35.2011 13.1837V16.0751C35.2011 16.6388 34.743 17.0981 34.1808 17.0981C33.6186 17.0981 33.1605 16.6388 33.1605 16.0751V11.1482C33.1605 10.5845 33.6186 10.1252 34.1808 10.1252H38.2308C39.7093 10.1252 40.9586 9.36325 40.9586 7.51565C40.9586 5.66805 39.5843 4.86429 38.0955 4.86429H34.1808C33.6186 4.86429 33.1605 4.405 33.1605 3.84132C33.1605 3.27765 33.6186 2.81836 34.1808 2.81836H37.5749C41.2814 2.81836 42.9993 4.68684 42.9993 7.37995Z" fill="white"/>
<path d="M46.3622 2.81836C46.9244 2.81836 47.3825 3.27765 47.3825 3.84132V16.0647C47.3825 16.6284 46.9244 17.0877 46.3622 17.0877C45.8 17.0877 45.3419 16.6284 45.3419 16.0647V3.84132C45.3419 3.27765 45.8 2.81836 46.3622 2.81836ZM48.5382 16.0647C48.5382 15.501 48.9963 15.0417 49.5585 15.0417H52.1301C52.6923 15.0417 53.1504 15.501 53.1504 16.0647C53.1504 16.6284 52.6923 17.0877 52.1301 17.0877H49.5585C48.9963 17.0877 48.5382 16.6284 48.5382 16.0647Z" fill="white"/>
<path d="M98.3464 16.096V3.89353C98.3464 3.44468 98.0862 3.0167 97.6593 2.881C96.9617 2.66179 96.3162 3.17328 96.3162 3.85177V11.8894C96.3162 12.1712 96.1288 12.4321 95.8477 12.5052C95.6186 12.5678 95.3688 12.4948 95.2126 12.3173L88.0495 4.25887C87.758 3.92484 87.2687 3.7787 86.873 3.95616C86.1963 4.25887 86.0609 5.07307 86.5086 5.57411L96.514 16.8476C96.6494 17.025 96.8368 17.1607 97.0554 17.2338C97.0763 17.2338 97.0971 17.2443 97.1075 17.2547C97.1387 17.2547 97.1595 17.2547 97.1908 17.2651C97.2324 17.2651 97.2845 17.2756 97.3261 17.2756C97.3261 17.2756 97.3365 17.2756 97.3469 17.2756C97.5864 17.2756 97.8259 17.1921 98.0237 17.0251C98.2944 16.785 98.3985 16.4405 98.3569 16.1169L98.3464 16.096Z" fill="white"/>
<path d="M88.164 8.69516C87.5498 8.07929 86.4878 8.50727 86.4878 9.38409V16.1064C86.4878 16.6492 86.9251 17.0876 87.4665 17.0876H87.5394C88.0807 17.0876 88.518 16.6492 88.518 16.1064V9.4676C88.518 9.20664 88.4139 8.95612 88.2369 8.77866L88.164 8.7056V8.69516Z" fill="white"/>
<path d="M111.933 3.84132V3.79957C111.933 3.25677 112.371 2.81836 112.912 2.81836H120.45C120.991 2.81836 121.429 3.25677 121.429 3.79957V3.84132C121.429 4.38412 120.991 4.82253 120.45 4.82253H112.912C112.371 4.82253 111.933 4.38412 111.933 3.84132ZM115.661 16.1065V6.96241C115.661 6.41961 116.098 5.9812 116.639 5.9812H116.712C117.254 5.9812 117.691 6.41961 117.691 6.96241V16.1065C117.691 16.6493 117.254 17.0877 116.712 17.0877H116.639C116.098 17.0877 115.661 16.6493 115.661 16.1065Z" fill="white"/>
<path d="M60.5842 2.64087C56.555 2.64087 53.2858 5.91853 53.2858 9.95819C53.2858 13.9979 56.555 17.2755 60.5842 17.2755C64.6134 17.2755 67.8826 13.9979 67.8826 9.95819C67.8826 5.91853 64.6134 2.64087 60.5842 2.64087ZM60.5842 15.2296C57.6794 15.2296 55.3264 12.8705 55.3264 9.95819C55.3264 7.04588 57.6794 4.6868 60.5842 4.6868C63.489 4.6868 65.842 7.04588 65.842 9.95819C65.842 12.8705 63.489 15.2296 60.5842 15.2296Z" fill="white"/>
<path d="M76.9197 2.64087C72.8905 2.64087 69.6213 5.91853 69.6213 9.95819C69.6213 13.9979 72.8905 17.2755 76.9197 17.2755C80.9489 17.2755 84.2181 13.9979 84.2181 9.95819C84.2181 5.91853 80.9489 2.64087 76.9197 2.64087ZM76.9197 15.2296C74.0149 15.2296 71.6619 12.8705 71.6619 9.95819C71.6619 7.04588 74.0149 4.6868 76.9197 4.6868C79.8245 4.6868 82.1775 7.04588 82.1775 9.95819C82.1775 12.8705 79.8245 15.2296 76.9197 15.2296Z" fill="white"/>
<path d="M109.424 2.81836H101.813C101.25 2.81836 100.793 3.27402 100.793 3.8361C100.793 4.39819 101.25 4.85385 101.813 4.85385H109.424C109.988 4.85385 110.445 4.39819 110.445 3.8361C110.445 3.27402 109.988 2.81836 109.424 2.81836Z" fill="white"/>
<path d="M109.424 15.0417H101.813C101.25 15.0417 100.793 15.4974 100.793 16.0595C100.793 16.6216 101.25 17.0772 101.813 17.0772H109.424C109.988 17.0772 110.445 16.6216 110.445 16.0595C110.445 15.4974 109.988 15.0417 109.424 15.0417Z" fill="white"/>
<path d="M107.061 8.94556H101.813C101.25 8.94556 100.793 9.40122 100.793 9.9633C100.793 10.5254 101.25 10.981 101.813 10.981H107.061C107.624 10.981 108.081 10.5254 108.081 9.9633C108.081 9.40122 107.624 8.94556 107.061 8.94556Z" fill="white"/>
<path d="M24.9655 4.27931L22.2169 5.28139C19.916 0.959941 14.752 -1.11728 10.0253 0.60504C5.29857 2.32736 2.68533 7.25422 3.68481 12.0454L0.936229 13.0475C0.197026 13.3189 -0.177781 14.1331 0.0825016 14.8742C0.342784 15.6153 1.16528 15.9911 1.90448 15.7301L4.65306 14.728C6.95396 19.0495 12.118 21.1267 16.8447 19.4044C21.561 17.6821 24.1847 12.7552 23.1852 7.96403L25.9338 6.96195C26.673 6.69056 27.0478 5.87637 26.7875 5.13525C26.5272 4.39414 25.7047 4.01836 24.9655 4.27931ZM15.866 16.6904C12.1804 18.037 8.09921 16.1268 6.75615 12.4316C5.41309 8.73646 7.31836 4.64465 11.004 3.29812C14.2315 2.11859 17.7609 3.43381 19.4892 6.26259L15.5433 7.70307C14.8041 7.97447 14.4293 8.78865 14.6896 9.52977C14.9603 10.2709 15.7723 10.6467 16.5115 10.3857L20.4574 8.94523C20.9468 12.2228 19.0935 15.5109 15.8556 16.6904H15.866Z" fill="white"/>
</g>
<defs>
<clipPath id="clip0_323_22">
<rect width="121.429" height="20" fill="white"/>
</clipPath>
</defs>
</svg>
